<svg id="Шар_1" data-name="Шар 1" xmlns="http://www.w3.org/2000/svg" viewBox="0 0 991.83 606.22"><defs><style>.cls-1{fill:#fff;}</style></defs><title>destup logo</title><path class="cls-1" d="M643,324.35l48.5-30.3-1.1-3.93C572,307.61,453.78,307.8,335.09,291.44c13.29,14.71,31.38,21.89,46.49,34.44-2.83-.87-5.72-1.58-8.47-2.64C334.87,308.46,297,292.54,258.3,279.15c-31.88-11-64.14-6.94-94.77,6.4-17.73,7.73-25.06,23.42-27.66,42-2.94,21.05-6.53,42-10.26,62.95-.5,2.81-3,6.76-5.41,7.5-24.1,7.42-48.81,12.42-73.62,4.93-28.33-8.55-47.65-39.79-43-66.82,5.35-31,31-53.53,61.8-53.35,8.36,0,11.63-1.36,12.42-10.64C79.55,252.06,99,238.38,119,241.67c2.59.43,5.17.88,9.6,1.63-1.59-4.71-2.6-7.77-3.65-10.81a57.61,57.61,0,0,1,29.3-71.1c26-12.72,58.69-3.72,74.08,21,3.83,6.14,7.58,9.72,15.27,9.21,3.13-.21,8.13,1.84,9.24,4.26s-1.27,6.75-3,9.77c-3.58,6.43-8.49,12.21-11.45,18.88-5.16,11.62-2.57,19.71,9.46,25,15.17,6.64,30.79,13,46.86,16.74,86.56,19.88,174.5,24.63,263,21.27,58.93-2.24,117.65-7.21,175-21.74,15.13-3.83,29.93-9.58,44.2-16,13.49-6,15.76-14.57,9.08-28-2.86-5.74-7.25-10.7-10.44-16.3-1.7-3-4.2-8.08-3-9.58,2.06-2.6,6.82-4.55,10.26-4.29,9.79.73,19.47,2.86,29.23,4.14,5.72.75,11.59,1.69,17.27,1.2,23.5-2.06,40.85,12.4,41.93,36.18.31,6.81,2.94,7.24,9,7.93a39.08,39.08,0,0,1,19.49,8.05c4.73,3.89,7.58,5.14,13.5,2.9,13.65-5.16,26.9-3.69,37.83,6.83,11.13,10.71,13.81,23.95,8.46,38.21-2.44,6.53-.91,9.15,5.14,11.89C983.42,317.48,994,332.5,994.71,353c1,27.34-22.24,50.73-49.65,50.13-12.56-.27-25.17-2.36-37.53-4.81-3.34-.66-7.74-5.28-8.39-8.71q-5.73-30-9.75-60.24c-3.69-27.62-15.59-42.07-42.51-49.56-32.78-9.12-64.9-8.64-96.83,4.86s-64.19,25.5-96.34,38.1c-3.26,1.28-6.68,2.18-10,3.26Z" transform="translate(-2.91 -8.57)"/><path class="cls-1" d="M319.35,408c-14.18-2.26-27.83-4-41.28-6.69-24.46-4.92-48.88-10.08-73.17-15.78-30.05-7-39.21-26.2-34.08-58.4.33-2.1,4.62-5.46,6.54-5.14,55.82,9.31,105.29,30.23,139.64,78a27,27,0,0,1,2.31,4C319.55,404.49,319.35,405.18,319.35,408Z" transform="translate(-2.91 -8.57)"/><path class="cls-1" d="M704.69,404.21c8-9.44,15.11-19.9,24.21-28.13,33.09-30,72.5-46.9,116.34-54.19,6.58-1.09,8.72,1.21,9.7,7.29,5,31.19-6.19,49.92-36.8,56.84-35.1,7.93-70.57,14.21-105.9,21.12-1.69.33-3.54-.1-5.31-.18Z" transform="translate(-2.91 -8.57)"/><path class="cls-1" d="M379.89,403.08h266C612.61,429.9,413.3,430.11,379.89,403.08Z" transform="translate(-2.91 -8.57)"/><path class="cls-1" d="M177,64.13c20,.17,35.31,15.36,35.32,35A35.16,35.16,0,1,1,142,98.62C142.36,79.45,158.07,64,177,64.13Z" transform="translate(-2.91 -8.57)"/><path class="cls-1" d="M954.25,209.6a34.74,34.74,0,0,1-35-35.18c.08-19.19,16.31-35.11,35.66-35a35.49,35.49,0,0,1,35,35.6C989.79,194.7,974.33,209.7,954.25,209.6Z" transform="translate(-2.91 -8.57)"/><path class="cls-1" d="M436.18,66.79C436,78.54,427.29,87.12,415.7,87a20.32,20.32,0,0,1,.21-40.63A20.07,20.07,0,0,1,436.18,66.79Z" transform="translate(-2.91 -8.57)"/><path class="cls-1" d="M836.27,138.15c.08,11.16-7.93,19.45-18.85,19.52a18.9,18.9,0,0,1-19.18-19.33,19.32,19.32,0,0,1,18.54-19.18A19,19,0,0,1,836.27,138.15Z" transform="translate(-2.91 -8.57)"/><path class="cls-1" d="M93.45,207.3a17,17,0,0,1-34.09-.65c0-9.36,7.7-16.66,17.34-16.54A16.8,16.8,0,0,1,93.45,207.3Z" transform="translate(-2.91 -8.57)"/><path class="cls-1" d="M258.54,40.18a15.1,15.1,0,0,1-15.28-15.23c0-8,7.34-16.19,14.64-16.37,6.89-.17,15.25,8.27,15.55,15.72C273.76,32.11,266.28,40.09,258.54,40.18Z" transform="translate(-2.91 -8.57)"/><path class="cls-1" d="M493.31,120.14c-20.34.46-40.68.81-61,1.67-5.92.25-9.69-1.26-12.93-6.48-14-22.52-37.56-30-62.6-21a15.36,15.36,0,0,1-12.18-1.63c-13.29-9.4-28.88-10.87-41.48-2.83-13.46,8.59-18.58,22.67-15.36,39.4.63,3.26-1.06,8.45-3.55,10.57-13.79,11.81-15.74,26.9-3.66,40.24,4.17,4.61,3.48,7.59.08,11.79-6.59,8.14-12.91,16.5-19.21,24.88-9,12-6.79,21,7.28,25.57,15.49,5.09,31.39,8.91,47,13.58,7.41,2.21,12.65.1,18-5.35,35.19-35.67,74.4-66.51,115.8-94.59,16.77-11.37,33.93-22.17,53.36-34.83C497.94,120.58,495.62,120.09,493.31,120.14ZM323.65,175.32a4.16,4.16,0,1,1,4.16-4.16A4.16,4.16,0,0,1,323.65,175.32Zm67.05-18.07c0,.06,0,.12,0,.18s0-.07,0-.18c-.14-11.31-12.17-12.17-12.17-12.17,13,0,12-12,12-12,0,11.33,13.56,12.53,13.56,12.53C390.57,145.59,390.62,155.77,390.7,157.25Z" transform="translate(-2.91 -8.57)"/><path class="cls-1" d="M766.59,220.69c-18-23.85-35-48.77-55.64-70.13-17.7-18.31-43.65-26.66-68.11-21.06-87.65,20.06-168,57.83-242.9,107.43-11.68,7.74-22.89,16.2-34.32,24.33l.57,2.6c5.27.82,10.5,2,15.8,2.4,23,1.79,46.06,3.83,69.13,4.91,80.84,3.78,161.48,2,241.36-12.2,21.74-3.87,43-10.53,64.3-16.71C769.19,238.66,773.3,229.6,766.59,220.69Zm-263,23.41a5.24,5.24,0,1,1,5.24-5.24A5.24,5.24,0,0,1,503.62,244.1Zm136.07-18c0,.31,0,.62,0,.94,0,0,0-.35,0-.94-.65-14.6-16.39-15.72-16.39-15.72,15.48,0,16.25-12.54,16.22-15.55,0-.22,0-.42,0-.65,0,0,0,.24,0,.65.52,14.66,18.25,16.24,18.25,16.24C641,211.1,639.7,222.71,639.68,226.12Zm33.73-57.28a5.09,5.09,0,1,1,5.09-5.09A5.09,5.09,0,0,1,673.41,168.84Z" transform="translate(-2.91 -8.57)"/><path class="cls-1" d="M195.39,612.42H164.6V473.73q29.46-1,37-1,30.31,0,48.08,17.76t17.76,47.13Q267.48,612.42,195.39,612.42Zm-6.16-117.19V590q6,.57,12.88.57,18.66,0,29.23-13.55T241.9,539.1q0-44.52-41.4-44.52Q196.52,494.57,189.23,495.24Z" transform="translate(-2.91 -8.57)"/><path class="cls-1" d="M313.9,495.52V528h45.85V549H313.9v41.59h62.9v21.88H289.27V473.64h88.58v21.88Z" transform="translate(-2.91 -8.57)"/><path class="cls-1" d="M393,604.75l9.09-22.07q14.59,10.23,28.7,10.23,21.69,0,21.69-15.16a21.48,21.48,0,0,0-5.12-13.55q-5.12-6.44-21.08-14.45t-21.5-13.17a35.18,35.18,0,0,1-8.53-12.27,40.22,40.22,0,0,1-3-15.73,34.4,34.4,0,0,1,11.79-26.71q11.79-10.61,30.27-10.61,24.06,0,35.34,9l-7.48,21.22q-13-9.28-27.38-9.28-8.53,0-13.22,4.5a15.49,15.49,0,0,0-4.69,11.7q0,11.94,26.43,24.82,13.93,6.82,20.08,12.55a38.58,38.58,0,0,1,9.38,13.36,43.3,43.3,0,0,1,3.22,17q0,16.86-13.31,27.76t-35.67,10.89A63.47,63.47,0,0,1,393,604.75Z" transform="translate(-2.91 -8.57)"/><path class="cls-1" d="M555.28,495.52v116.9H530.65V495.52H486.5V473.64H601.42v21.88Z" transform="translate(-2.91 -8.57)"/><path class="cls-1" d="M617.52,473.64h24.63v94.07q0,11.18,6.82,18.19t18.76,7q13.36,0,20.79-6.87t7.44-18.8v-93.6h24.63v95.49q0,21.41-14.35,33.54t-38.32,12.13q-24.16,0-37.28-11.84T617.52,569Z" transform="translate(-2.91 -8.57)"/><path class="cls-1" d="M773.64,561.36v51.06H749V473.73q24.63-1,28.8-1,32.87,0,48.08,10.09t15.2,31.5q0,47.75-56.27,47.75Q780.65,562,773.64,561.36Zm0-66.31v44.43q6.25.66,9.85.66,16.86,0,24.63-5.64t7.77-18.33q0-21.6-34.77-21.6A57.35,57.35,0,0,0,773.64,495Z" transform="translate(-2.91 -8.57)"/></svg>